<mxfile host="app.diagrams.net" modified="2023-09-10T16:02:39.144Z" agent="Mozilla/5.0 (Windows NT 10.0; Win64; x64) AppleWebKit/537.36 (KHTML, like Gecko) Chrome/116.0.0.0 Safari/537.36" etag="DS3ruh91J1S715vaaQOQ" version="21.7.4" type="device">
  <diagram name="Page-1" id="D_cGuZXpLL52jP8zfodn">
    <mxGraphModel dx="1434" dy="758" grid="1" gridSize="10" guides="1" tooltips="1" connect="1" arrows="1" fold="1" page="1" pageScale="1" pageWidth="827" pageHeight="1169" math="0" shadow="0">
      <root>
        <mxCell id="0" />
        <mxCell id="1" parent="0" />
        <mxCell id="Po-Upl4nBt10MiA47qQ7-1" value="" style="endArrow=open;html=1;endFill=0;sourcePerimeterSpacing=0;targetPerimeterSpacing=0;jumpSize=6;shadow=0;comic=0;strokeOpacity=100;strokeColor=default;strokeWidth=1.2;" edge="1" parent="1">
          <mxGeometry width="50" height="50" relative="1" as="geometry">
            <mxPoint x="40" y="420" as="sourcePoint" />
            <mxPoint x="70" y="420" as="targetPoint" />
          </mxGeometry>
        </mxCell>
        <mxCell id="Po-Upl4nBt10MiA47qQ7-2" value="COLUMN" style="rounded=0;whiteSpace=wrap;html=1;shadow=0;comic=0;strokeOpacity=100;strokeColor=default;strokeWidth=1.2;" vertex="1" parent="1">
          <mxGeometry x="90" y="390" width="70" height="20" as="geometry" />
        </mxCell>
        <mxCell id="Po-Upl4nBt10MiA47qQ7-3" value="POSITION" style="rounded=0;whiteSpace=wrap;html=1;shadow=0;comic=0;strokeOpacity=100;strokeColor=default;strokeWidth=1.2;" vertex="1" parent="1">
          <mxGeometry x="90" y="430" width="70" height="20" as="geometry" />
        </mxCell>
        <mxCell id="Po-Upl4nBt10MiA47qQ7-4" value="" style="edgeStyle=elbowEdgeStyle;elbow=horizontal;endArrow=none;html=1;endSize=8;startSize=8;entryX=0;entryY=0.5;entryDx=0;entryDy=0;endFill=0;curved=1;strokeOpacity=100;shadow=0;strokeColor=default;strokeWidth=1.2;" edge="1" parent="1" target="Po-Upl4nBt10MiA47qQ7-2">
          <mxGeometry width="50" height="50" relative="1" as="geometry">
            <mxPoint x="70" y="420" as="sourcePoint" />
            <mxPoint x="120" y="340" as="targetPoint" />
            <Array as="points" />
          </mxGeometry>
        </mxCell>
        <mxCell id="Po-Upl4nBt10MiA47qQ7-5" value="" style="edgeStyle=elbowEdgeStyle;elbow=horizontal;endArrow=none;html=1;curved=1;endSize=8;startSize=8;entryX=0;entryY=0.5;entryDx=0;entryDy=0;endFill=0;strokeOpacity=100;shadow=0;strokeColor=default;strokeWidth=1.2;" edge="1" parent="1" target="Po-Upl4nBt10MiA47qQ7-3">
          <mxGeometry width="50" height="50" relative="1" as="geometry">
            <mxPoint x="70" y="420" as="sourcePoint" />
            <mxPoint x="280" y="390" as="targetPoint" />
          </mxGeometry>
        </mxCell>
        <mxCell id="Po-Upl4nBt10MiA47qQ7-6" value="&lt;font style=&quot;font-size: 12px;&quot;&gt;string&lt;/font&gt;" style="rounded=1;whiteSpace=wrap;html=1;arcSize=50;shadow=0;comic=0;strokeOpacity=100;strokeColor=default;strokeWidth=1.2;" vertex="1" parent="1">
          <mxGeometry x="170" y="390" width="60" height="20" as="geometry" />
        </mxCell>
        <mxCell id="Po-Upl4nBt10MiA47qQ7-7" value="(" style="rounded=1;whiteSpace=wrap;html=1;arcSize=50;shadow=0;comic=0;strokeOpacity=100;strokeColor=default;strokeWidth=1.2;" vertex="1" parent="1">
          <mxGeometry x="170" y="430" width="30" height="20" as="geometry" />
        </mxCell>
        <mxCell id="Po-Upl4nBt10MiA47qQ7-8" value="int" style="rounded=1;whiteSpace=wrap;html=1;arcSize=50;shadow=0;comic=0;strokeOpacity=100;strokeColor=default;strokeWidth=1.2;" vertex="1" parent="1">
          <mxGeometry x="210" y="430" width="30" height="20" as="geometry" />
        </mxCell>
        <mxCell id="Po-Upl4nBt10MiA47qQ7-9" value=")" style="rounded=1;whiteSpace=wrap;html=1;arcSize=50;shadow=0;comic=0;strokeOpacity=100;strokeColor=default;strokeWidth=1.2;" vertex="1" parent="1">
          <mxGeometry x="330" y="430" width="30" height="20" as="geometry" />
        </mxCell>
        <mxCell id="Po-Upl4nBt10MiA47qQ7-10" value="int" style="rounded=1;whiteSpace=wrap;html=1;arcSize=50;shadow=0;comic=0;strokeOpacity=100;strokeColor=default;strokeWidth=1.2;" vertex="1" parent="1">
          <mxGeometry x="290" y="430" width="31" height="20" as="geometry" />
        </mxCell>
        <mxCell id="Po-Upl4nBt10MiA47qQ7-11" value=":" style="rounded=1;whiteSpace=wrap;html=1;arcSize=50;shadow=0;comic=0;strokeOpacity=100;strokeColor=default;strokeWidth=1.2;" vertex="1" parent="1">
          <mxGeometry x="250" y="430" width="30" height="20" as="geometry" />
        </mxCell>
        <mxCell id="Po-Upl4nBt10MiA47qQ7-12" value="" style="endArrow=none;html=1;exitX=1;exitY=0.5;exitDx=0;exitDy=0;entryX=0;entryY=0.5;entryDx=0;entryDy=0;strokeOpacity=100;shadow=0;strokeColor=default;strokeWidth=1.2;" edge="1" parent="1" source="Po-Upl4nBt10MiA47qQ7-3" target="Po-Upl4nBt10MiA47qQ7-7">
          <mxGeometry width="50" height="50" relative="1" as="geometry">
            <mxPoint x="230" y="460" as="sourcePoint" />
            <mxPoint x="280" y="410" as="targetPoint" />
          </mxGeometry>
        </mxCell>
        <mxCell id="Po-Upl4nBt10MiA47qQ7-13" value="" style="endArrow=none;html=1;exitX=1;exitY=0.5;exitDx=0;exitDy=0;entryX=0;entryY=0.5;entryDx=0;entryDy=0;strokeOpacity=100;shadow=0;strokeColor=default;strokeWidth=1.2;" edge="1" parent="1" source="Po-Upl4nBt10MiA47qQ7-7" target="Po-Upl4nBt10MiA47qQ7-8">
          <mxGeometry width="50" height="50" relative="1" as="geometry">
            <mxPoint x="230" y="460" as="sourcePoint" />
            <mxPoint x="280" y="410" as="targetPoint" />
          </mxGeometry>
        </mxCell>
        <mxCell id="Po-Upl4nBt10MiA47qQ7-14" value="" style="endArrow=none;html=1;entryX=0;entryY=0.5;entryDx=0;entryDy=0;exitX=1;exitY=0.5;exitDx=0;exitDy=0;strokeOpacity=100;shadow=0;strokeColor=default;strokeWidth=1.2;" edge="1" parent="1" source="Po-Upl4nBt10MiA47qQ7-8" target="Po-Upl4nBt10MiA47qQ7-11">
          <mxGeometry width="50" height="50" relative="1" as="geometry">
            <mxPoint x="230" y="460" as="sourcePoint" />
            <mxPoint x="280" y="410" as="targetPoint" />
          </mxGeometry>
        </mxCell>
        <mxCell id="Po-Upl4nBt10MiA47qQ7-15" value="" style="endArrow=none;html=1;exitX=1;exitY=0.5;exitDx=0;exitDy=0;entryX=0;entryY=0.5;entryDx=0;entryDy=0;strokeOpacity=100;shadow=0;strokeColor=default;strokeWidth=1.2;" edge="1" parent="1" source="Po-Upl4nBt10MiA47qQ7-11" target="Po-Upl4nBt10MiA47qQ7-10">
          <mxGeometry width="50" height="50" relative="1" as="geometry">
            <mxPoint x="230" y="460" as="sourcePoint" />
            <mxPoint x="280" y="410" as="targetPoint" />
          </mxGeometry>
        </mxCell>
        <mxCell id="Po-Upl4nBt10MiA47qQ7-16" value="" style="endArrow=none;html=1;exitX=1;exitY=0.5;exitDx=0;exitDy=0;entryX=0;entryY=0.5;entryDx=0;entryDy=0;strokeOpacity=100;shadow=0;strokeColor=default;strokeWidth=1.2;" edge="1" parent="1" source="Po-Upl4nBt10MiA47qQ7-10" target="Po-Upl4nBt10MiA47qQ7-9">
          <mxGeometry width="50" height="50" relative="1" as="geometry">
            <mxPoint x="230" y="460" as="sourcePoint" />
            <mxPoint x="280" y="410" as="targetPoint" />
          </mxGeometry>
        </mxCell>
        <mxCell id="Po-Upl4nBt10MiA47qQ7-17" value="" style="endArrow=none;html=1;exitX=1;exitY=0.5;exitDx=0;exitDy=0;entryX=0;entryY=0.5;entryDx=0;entryDy=0;strokeOpacity=100;shadow=0;strokeColor=default;strokeWidth=1.2;" edge="1" parent="1" source="Po-Upl4nBt10MiA47qQ7-2" target="Po-Upl4nBt10MiA47qQ7-6">
          <mxGeometry width="50" height="50" relative="1" as="geometry">
            <mxPoint x="190" y="420" as="sourcePoint" />
            <mxPoint x="240" y="370" as="targetPoint" />
          </mxGeometry>
        </mxCell>
        <mxCell id="Po-Upl4nBt10MiA47qQ7-18" value="" style="edgeStyle=elbowEdgeStyle;elbow=horizontal;endArrow=open;html=1;rounded=1;endSize=6;startSize=6;endFill=0;exitX=1;exitY=0.5;exitDx=0;exitDy=0;strokeOpacity=100;shadow=0;strokeColor=default;strokeWidth=1.2;" edge="1" parent="1" source="Po-Upl4nBt10MiA47qQ7-6">
          <mxGeometry width="50" height="50" relative="1" as="geometry">
            <mxPoint x="284" y="400" as="sourcePoint" />
            <mxPoint x="400" y="420" as="targetPoint" />
            <Array as="points">
              <mxPoint x="370" y="410" />
            </Array>
          </mxGeometry>
        </mxCell>
        <mxCell id="Po-Upl4nBt10MiA47qQ7-19" value="" style="edgeStyle=elbowEdgeStyle;elbow=horizontal;endArrow=none;html=1;rounded=1;endSize=8;startSize=8;exitX=1;exitY=0.5;exitDx=0;exitDy=0;endFill=0;strokeOpacity=100;shadow=0;strokeColor=default;strokeWidth=1.2;" edge="1" parent="1" source="Po-Upl4nBt10MiA47qQ7-9">
          <mxGeometry width="50" height="50" relative="1" as="geometry">
            <mxPoint x="370" y="440" as="sourcePoint" />
            <mxPoint x="390" y="420" as="targetPoint" />
            <Array as="points">
              <mxPoint x="370" y="430" />
            </Array>
          </mxGeometry>
        </mxCell>
      </root>
    </mxGraphModel>
  </diagram>
</mxfile>
